# AST/ASF file generated using VICON BodyLanguage
# -----------------------------------------------
:version 1.10
:name VICON
:units
  mass 1.0
  length 0.45
  angle deg
:documentation
   .ast/.asf automatically generated from VICON data using
   VICON BodyBuilder and BodyLanguage model FoxedUp or BRILLIANT.MOD
:root
   order TX TY TZ RX RY RZ
   axis XYZ
   position 0 0 0  
   orientation 0 0 0 
:bonedata
  begin
     id 1 
     name lhipjoint
     direction 0.661853 -0.702389 0.261917 
     length 2.64193 
     axis 0 0 0  XYZ
  end
  begin
     id 2 
     name lfemur
     direction 0.34202 -0.939693 0  
     length 7.01722  
     axis 0 0 20  XYZ
    dof rx ry rz
    limits (-160.0 20.0)
           (-70.0 70.0)
           (-60.0 70.0)
  end
  begin
     id 3 
     name ltibia
     direction 0.34202 -0.939693 0   
     length 8.25008   
     axis 0 0 20   XYZ
    dof rx
    limits (-10.0 170.0)
  end
  begin
     id 4 
     name lfoot
     direction 0.0709916 -0.195048 0.978221   
     length 2.31941   
     axis -90 7.62852e-016 20   XYZ
    dof rx rz
    limits (-45.0 90.0)
           (-70.0 20.0)
  end
  begin
     id 5 
     name ltoes
     direction 1.53586e-011 -4.22017e-011 1   
     length 1.16486   
     axis -90 7.62852e-016 20   XYZ
    dof rx
    limits (-90.0 20.0)
  end
  begin
     id 6 
     name rhipjoint
     direction -0.638185 -0.721362 0.268992   
     length 2.57244  
     axis 0 0 0  XYZ 
  end
  begin
     id 7 
     name rfemur
     direction -0.34202 -0.939693 0   
     length 7.07017   
     axis 0 0 -20   XYZ
    dof rx ry rz
    limits (-160.0 20.0)
           (-70.0 70.0)
           (-70.0 60.0)
  end
  begin
     id 8 
     name rtibia
     direction -0.34202 -0.939693 0   
     length 8.20386   
     axis 0 0 -20   XYZ
    dof rx
    limits (-10.0 170.0)
 end
 begin
     id 9 
     name rfoot
     direction -0.0822429 -0.225961 0.970658   
     length 2.32215  
     axis -90 -7.62852e-016 -20   XYZ
    dof rx rz
    limits (-45.0 90.0)
           (-20.0 70.0)
  end
  begin
     id 10 
     name rtoes
     direction -1.53597e-011 -4.21689e-011 1   
     length 1.16333   
     axis -90 -7.62852e-016 -20   XYZ
    dof rx
    limits (-90.0 20.0)
  end
  begin
     id 11 
     name lowerback
     direction -0.0131557 0.998589 -0.0514484   
     length 2.14993   
     axis 0 0 0   XYZ
    dof rx ry rz
    limits (-20.0 45.0)
           (-30.0 30.0)
           (-30.0 30.0)
  end
  begin
     id 12 
     name upperback
     direction -0.000776481 0.999993 0.00352685   
     length 2.15301   
     axis 0 0 0   XYZ
    dof rx ry rz
    limits (-20.0 45.0)
           (-30.0 30.0)
           (-30.0 30.0)
  end
  begin
     id 13 
     name thorax
     direction 0.00438186 0.999609 0.0276143   
     length 2.15424   
     axis 0 0 0   XYZ
    dof rx ry rz
    limits (-20.0 45.0)
           (-30.0 30.0)
           (-30.0 30.0)
  end
  begin
     id 14 
     name lowerneck
     direction -0.0488006 0.998094 0.0377807   
     length 1.90481   
     axis 0 0 0   XYZ
    dof rx ry rz
    limits (-20.0 45.0)
           (-30.0 30.0)
           (-30.0 30.0)
  end
  begin
     id 15 
     name upperneck
     direction 0.0443769 0.990702 -0.12861   
     length 1.91305   
     axis 0 0 0   XYZ
    dof rx ry rz
    limits (-20.0 45.0)
           (-30.0 30.0)
           (-30.0 30.0)
  end
  begin
     id 16
     name head
     direction 0.0165599 0.998647 -0.0492982  
     length 1.92369  
     axis 0 0 0   XYZ
    dof rx ry rz
    limits (-20.0 45.0)
           (-30.0 30.0)
           (-30.0 30.0)
  end
  begin
     id 17 
     name lclavicle
     direction 0.911936 0.410197 -0.0105506  
     length 3.52622  
     axis 0 0 0   XYZ
    dof ry rz
    limits (-20.0 10.0)
           (0.0 20.0)
  end
  begin
     id 18 
     name lhumerus
     direction 1 -4.48974e-011 -2.48591e-028   
     length 5.47651   
     axis 180 -30 -90   XYZ
    dof rx ry rz
    limits (-60.0 90.0)
           (-90.0 90.0)
           (-90.0 90.0)
  end
  begin
     id 19
     name lradius
     direction 1 -4.48938e-011 -4.40099e-027   
     length 3.09058   
     axis 180 -30 -90   XYZ
    dof rx
    limits (-10.0 170.0)
  end
  begin
     id 20
     name lwrist
     direction 1 -4.49042e-011 -2.99852e-027   
     length 1.54529   
     axis 1.95339e-015 90 90   XYZ
    dof ry
    limits (-180.0 0.0)
 end
  begin
     id 21 
     name lhand
     direction 1 -4.48815e-011 -5.98193e-027   
     length 0.771611   
     axis 3.82337e-015 90 90   XYZ
    dof rx rz
    limits (-90.0 90.0)
           (-45.0 45.0)
  end
  begin
     id 22 
     name lfingers
     direction 1 -4.49034e-011 -1.1993e-026   
     length 0.622093   
     axis 7.64668e-015 90 90   XYZ
    dof rx
    limits (0.0 90.0)
  end
  begin
     id 23
     name lthumb
     direction 0.707107 -6.34867e-011 0.707107   
     length 0.893204   
     axis -90 45 -1.62303e-014   XYZ
    dof rx rz
    limits (-45.0 45.0)
           (-45.0 45.0)
  end
  begin
     id 24 
     name rclavicle
     direction -0.93442 0.355634 -0.0195692   
     length 3.62463  
     axis 0 0 0   XYZ 
    dof ry rz
    limits (-10.0 20.0)
           (-20.0 0.0)
  end
  begin
     id 25 
     name rhumerus
     direction -1 -4.48957e-011 -1.19147e-027  
     length 5.14182   
     axis 180 30 90   XYZ
    dof rx ry rz
    limits (-90.0 60.0)
           (-90.0 90.0)
           (-90.0 90.0)
  end
  begin
     id 26 
     name rradius
     direction -1 -4.48952e-011 -3.81062e-027   
     length 3.35565   
     axis 180 30 90   XYZ
    dof rx
    limits (-10.0 170.0)
  end
  begin
     id 27 
     name rwrist
     direction -1 -4.48973e-011 -2.99621e-027   
     length 1.67782   
     axis 1.95339e-015 -90 -90   XYZ
    dof ry
    limits (-180.0 0.0)
  end
  begin
     id 28
     name rhand
     direction -1 -4.48895e-011 -5.98727e-027   
     length 0.801042   
     axis 3.82337e-015 -90 -90   XYZ
    dof rx rz
    limits (-90.0 90.0)
           (-45.0 45.0)
  end
  begin
     id 29
     name rfingers
     direction -1 -4.49065e-011 -1.19972e-026   
     length 0.645821   
     axis 7.64668e-015 -90 -90   XYZ
    dof rx
    limits (0.0 90.0)
  end
  begin
     id 30
     name rthumb
     direction -0.707107 -6.34957e-011 0.707107   
     length 0.927273   
     axis -90 -45 1.62303e-014   XYZ
    dof rx rz
    limits (-45.0 45.0)
           (-45.0 45.0)
  end
:hierarchy
  begin
    root lhipjoint rhipjoint lowerback
    lhipjoint lfemur
    lfemur ltibia
    ltibia lfoot
    lfoot ltoes
    rhipjoint rfemur
    rfemur rtibia
    rtibia rfoot
    rfoot rtoes
    lowerback upperback
    upperback thorax
    thorax lowerneck lclavicle rclavicle
    lowerneck upperneck
    upperneck head
    lclavicle lhumerus
    lhumerus lradius
    lradius lwrist
    lwrist lhand lthumb
    lhand lfingers
    rclavicle rhumerus
    rhumerus rradius
    rradius rwrist
    rwrist rhand rthumb
    rhand rfingers
  end

#!OML:ASF E:\Style4\Style4.ASF
:FULLY-SPECIFIED
:DEGREES
554
root 0.927923 17.4849 -2.58754 8.51412 9.67799 3.02349
lowerback 15.6881 3.91331 2.40696
upperback 12.4978 5.42679 2.16902
thorax 4.59727 2.83458 0.338767
lowerneck 1.5243 -9.42563 -4.57881
upperneck -11.5401 -12.7307 2.99304
head -3.51108 -6.28407 2.15548
rclavicle 3.97569e-014 -2.8625e-014
rhumerus 62.3411 9.3005 -20.1804
rradius 64.8094
rwrist -92.6466
rhand -3.21301 11.657
rfingers 7.12502
rthumb 22.5095 -17.051
lclavicle 3.97569e-014 -2.8625e-014
lhumerus 51.106 -5.71244 -6.82512
lradius 78.7372
lwrist 89.4005
lhand 4.99142 24.187
lfingers 7.12502
lthumb 30.3618 51.7082
rfemur -31.4321 -9.00031 12.3996
rtibia 41.2189
rfoot -16.2047 -13.0447
rtoes -14.5701
lfemur -33.2855 -0.0271122 -25.9782
ltibia 37.1505
lfoot -11.9815 0.532633
ltoes -3.84112
555
root 0.949849 17.477 -2.59292 8.50624 9.22358 2.95816
lowerback 15.6512 3.8462 2.25646
upperback 12.4951 5.31793 2.15739
thorax 4.59794 2.76837 0.423246
lowerneck 1.41141 -9.21001 -4.58592
upperneck -11.4416 -12.431 3.00089
head -3.4664 -6.13642 2.14174
rclavicle -4.77083e-014 3.49861e-014
rhumerus 62.135 9.22131 -20.1122
rradius 64.5957
rwrist -92.0343
rhand -2.4685 11.837
rfingers 7.12502
rthumb 23.224 -16.7827
lclavicle -4.77083e-014 3.49861e-014
lhumerus 51.3848 -5.74598 -6.70882
lradius 78.7132
lwrist 89.3464
lhand 4.90014 24.0376
lfingers 7.12502
lthumb 30.2747 51.5748
rfemur -31.5901 -8.82851 12.3938
rtibia 41.2472
rfoot -16.182 -12.7884
rtoes -14.3248
lfemur -33.4397 0.141563 -25.9825
ltibia 37.4584
lfoot -12.2429 0.707297
ltoes -3.62284
556
root 0.972585 17.4702 -2.59674 8.4505 8.79417 2.83389
lowerback 15.6214 3.76045 2.18441
upperback 12.5131 5.19303 2.16013
thorax 4.62469 2.69913 0.482343
lowerneck 1.39111 -8.98366 -4.6079
upperneck -11.4505 -12.1207 3.04038
head -3.47439 -5.98249 2.15217
rclavicle -2.62396e-014 -9.54166e-015
rhumerus 61.9079 9.13716 -20.074
rradius 64.5235
rwrist -91.7204
rhand -2.01725 11.945
rfingers 7.12502
rthumb 23.6568 -16.6194
lclavicle -2.62396e-014 -9.54166e-015
lhumerus 51.5897 -5.78789 -6.54656
lradius 78.7217
lwrist 89.401
lhand 4.73046 23.9735
lfingers 7.12502
lthumb 30.1128 51.5403
rfemur -31.6916 -8.69903 12.4522
rtibia 41.2699
rfoot -16.0945 -12.559
rtoes -14.4314
lfemur -33.5212 0.257678 -25.9189
ltibia 37.7518
lfoot -12.4663 0.975091
ltoes -3.86413
557
root 0.993152 17.4628 -2.60145 8.35316 8.34682 2.72843
lowerback 15.6643 3.66626 2.08025
upperback 12.5493 5.05518 2.16336
thorax 4.63075 2.62129 0.556836
lowerneck 1.41817 -8.74602 -4.71223
upperneck -11.5317 -11.7979 3.12728
head -3.50964 -5.81991 2.19743
rclavicle -2.38542e-015 3.49861e-014
rhumerus 61.753 9.04228 -19.883
rradius 64.6248
rwrist -91.7086
rhand -1.9798 11.9908
rfingers 7.12502
rthumb 23.6928 -16.5689
lclavicle -2.38542e-015 3.49861e-014
lhumerus 51.745 -5.82815 -6.39672
lradius 78.7193
lwrist 89.3701
lhand 4.82462 23.7227
lfingers 7.12502
lthumb 30.2027 51.2731
rfemur -31.7525 -8.50236 12.4762
rtibia 41.3008
rfoot -16.0681 -12.2916
rtoes -14.089
lfemur -33.5597 0.38433 -25.8629
ltibia 38.0179
lfoot -12.6407 1.23753
ltoes -4.06482
558
root 1.01475 17.4573 -2.602 8.28304 7.89455 2.64425
lowerback 15.6307 3.57987 1.96128
upperback 12.6109 4.92388 2.15281
thorax 4.7057 2.54665 0.631351
lowerneck 1.40201 -8.53573 -4.72531
upperneck -11.5916 -11.5144 3.12551
head -3.53911 -5.67711 2.19636
rclavicle 1.19271e-014 -4.77083e-015
rhumerus 61.5895 8.93858 -19.6463
rradius 64.7853
rwrist -91.5382
rhand -2.1461 11.9909
rfingers 7.12502
rthumb 23.5333 -16.5895
lclavicle 1.19271e-014 -4.77083e-015
lhumerus 51.8923 -5.838 -6.24534
lradius 78.7911
lwrist 89.3087
lhand 4.91629 23.5798
lfingers 7.12502
lthumb 30.2901 51.1141
rfemur -31.8223 -8.29793 12.483
rtibia 41.3327
rfoot -16.002 -12.1104
rtoes -14.3905
lfemur -33.6091 0.486971 -25.8402
ltibia 38.2676
lfoot -12.919 1.65002
ltoes -5.30306
559
root 1.03783 17.449 -2.60166 8.27647 7.45658 2.64043
lowerback 15.5522 3.49515 1.78702
upperback 12.6403 4.78928 2.11019
thorax 4.76698 2.46762 0.704081
lowerneck 1.38762 -8.34119 -4.63106
upperneck -11.6427 -11.2547 3.0461
head -3.57564 -5.54731 2.15282
rclavicle -4.92986e-014 -3.02153e-014
rhumerus 61.4348 8.88463 -19.4323
rradius 64.8843
rwrist -91.4437
rhand -2.42498 11.9632
rfingers 7.12502
rthumb 23.2657 -16.6512
lclavicle -4.92986e-014 -3.02153e-014
lhumerus 52.0559 -5.87863 -6.07774
lradius 78.8495
lwrist 89.1951
lhand 5.06582 23.4369
lfingers 7.12502
lthumb 30.4327 50.945
rfemur -31.957 -8.18636 12.4102
rtibia 41.3845
rfoot -15.9122 -11.8667
rtoes -14.8956
lfemur -33.694 0.540211 -25.9026
ltibia 38.5064
lfoot -13.2 2.03157
ltoes -5.92944
